<svg width="50" height="46" viewBox="0 0 50 46" fill="none" xmlns="http://www.w3.org/2000/svg">
<path d="M6.52174 6.60475V0.0830078H10.8696V6.60475H17.3913V10.9526H10.8696V17.4743H6.52174V10.9526H0V6.60475H6.52174ZM13.0435 19.6482V13.1265H19.5652V6.60475H34.7826L38.7609 10.9526H45.6522C48.0435 10.9526 50 12.9091 50 15.3004V41.3874C50 43.7787 48.0435 45.7352 45.6522 45.7352H10.8696C8.47826 45.7352 6.52174 43.7787 6.52174 41.3874V19.6482H13.0435ZM28.2609 39.2134C34.2609 39.2134 39.1304 34.3439 39.1304 28.3439C39.1304 22.3439 34.2609 17.4743 28.2609 17.4743C22.2609 17.4743 17.3913 22.3439 17.3913 28.3439C17.3913 34.3439 22.2609 39.2134 28.2609 39.2134ZM21.3043 28.3439C21.3043 32.1917 24.413 35.3004 28.2609 35.3004C32.1087 35.3004 35.2174 32.1917 35.2174 28.3439C35.2174 24.4961 32.1087 21.3874 28.2609 21.3874C24.413 21.3874 21.3043 24.4961 21.3043 28.3439Z" fill="url(#paint0_linear)"/>
<defs>
<linearGradient id="paint0_linear" x1="44.7359" y1="19.0374" x2="25.009" y2="45.7712" gradientUnits="userSpaceOnUse">
<stop stop-color="#2237F0"/>
<stop offset="1" stop-color="#BD41D1"/>
</linearGradient>
</defs>
</svg>
