<svg width="175" height="52" viewBox="0 0 175 52" fill="none" xmlns="http://www.w3.org/2000/svg">
<path d="M80.96 36.5C80.72 36.5 80.516 36.428 80.348 36.284C80.204 36.116 80.132 35.912 80.132 35.672V12.164C80.132 11.9 80.204 11.696 80.348 11.552C80.516 11.384 80.72 11.3 80.96 11.3H82.76C83.144 11.3 83.456 11.492 83.696 11.876L91.292 26.42L98.96 11.876C99.008 11.732 99.104 11.6 99.248 11.48C99.416 11.36 99.62 11.3 99.86 11.3H101.624C101.888 11.3 102.092 11.384 102.236 11.552C102.404 11.696 102.488 11.9 102.488 12.164V35.672C102.488 35.912 102.404 36.116 102.236 36.284C102.068 36.428 101.864 36.5 101.624 36.5H99.86C99.62 36.5 99.416 36.428 99.248 36.284C99.104 36.116 99.032 35.912 99.032 35.672V17.96L93.02 29.696C92.78 30.2 92.396 30.452 91.868 30.452H90.752C90.224 30.452 89.84 30.2 89.6 29.696L83.552 17.96V35.672C83.552 35.912 83.468 36.116 83.3 36.284C83.156 36.428 82.964 36.5 82.724 36.5H80.96ZM115.914 36.86C113.274 36.86 111.222 36.116 109.758 34.628C108.318 33.14 107.55 31.16 107.454 28.688L107.418 27.14L107.454 25.592C107.55 23.144 108.33 21.176 109.794 19.688C111.258 18.176 113.298 17.42 115.914 17.42C118.53 17.42 120.57 18.176 122.034 19.688C123.498 21.176 124.278 23.144 124.374 25.592C124.398 25.856 124.41 26.372 124.41 27.14C124.41 27.908 124.398 28.424 124.374 28.688C124.278 31.16 123.498 33.14 122.034 34.628C120.594 36.116 118.554 36.86 115.914 36.86ZM115.914 34.088C117.426 34.088 118.614 33.608 119.478 32.648C120.366 31.688 120.846 30.308 120.918 28.508C120.942 28.268 120.954 27.812 120.954 27.14C120.954 26.468 120.942 26.012 120.918 25.772C120.846 23.972 120.366 22.592 119.478 21.632C118.614 20.672 117.426 20.192 115.914 20.192C114.402 20.192 113.202 20.672 112.314 21.632C111.426 22.592 110.958 23.972 110.91 25.772L110.874 27.14L110.91 28.508C110.958 30.308 111.426 31.688 112.314 32.648C113.202 33.608 114.402 34.088 115.914 34.088ZM134.766 36.5C134.142 36.5 133.698 36.2 133.434 35.6L126.774 18.896L126.702 18.536C126.702 18.32 126.774 18.14 126.918 17.996C127.062 17.852 127.242 17.78 127.458 17.78H129.186C129.594 17.78 129.894 17.984 130.086 18.392L135.558 32.576L141.03 18.392C141.246 17.984 141.534 17.78 141.894 17.78H143.658C143.85 17.78 144.018 17.852 144.162 17.996C144.33 18.14 144.414 18.32 144.414 18.536L144.342 18.896L137.646 35.6C137.382 36.2 136.938 36.5 136.314 36.5H134.766ZM148.724 14.288C148.484 14.288 148.28 14.216 148.112 14.072C147.968 13.904 147.896 13.7 147.896 13.46V11.516C147.896 11.276 147.968 11.072 148.112 10.904C148.28 10.736 148.484 10.652 148.724 10.652H150.992C151.232 10.652 151.436 10.736 151.604 10.904C151.772 11.072 151.856 11.276 151.856 11.516V13.46C151.856 13.7 151.772 13.904 151.604 14.072C151.436 14.216 151.232 14.288 150.992 14.288H148.724ZM149.012 36.5C148.772 36.5 148.568 36.428 148.4 36.284C148.256 36.116 148.184 35.912 148.184 35.672V18.608C148.184 18.368 148.256 18.176 148.4 18.032C148.568 17.864 148.772 17.78 149.012 17.78H150.74C150.98 17.78 151.172 17.864 151.316 18.032C151.484 18.176 151.568 18.368 151.568 18.608V35.672C151.568 35.912 151.484 36.116 151.316 36.284C151.172 36.428 150.98 36.5 150.74 36.5H149.012ZM164.39 36.86C161.918 36.86 159.938 36.104 158.45 34.592C156.986 33.056 156.182 30.968 156.038 28.328L156.002 27.104L156.038 25.916C156.206 23.324 157.022 21.26 158.486 19.724C159.974 18.188 161.93 17.42 164.354 17.42C167.018 17.42 169.082 18.272 170.546 19.976C172.01 21.656 172.742 23.936 172.742 26.816V27.428C172.742 27.668 172.658 27.872 172.49 28.04C172.346 28.184 172.154 28.256 171.914 28.256H159.458V28.58C159.53 30.14 159.998 31.472 160.862 32.576C161.75 33.656 162.914 34.196 164.354 34.196C165.458 34.196 166.358 33.98 167.054 33.548C167.774 33.092 168.302 32.624 168.638 32.144C168.854 31.856 169.01 31.688 169.106 31.64C169.226 31.568 169.43 31.532 169.718 31.532H171.482C171.698 31.532 171.878 31.592 172.022 31.712C172.166 31.832 172.238 32 172.238 32.216C172.238 32.744 171.902 33.38 171.23 34.124C170.582 34.868 169.658 35.516 168.458 36.068C167.282 36.596 165.926 36.86 164.39 36.86ZM169.322 25.772V25.664C169.322 24.008 168.866 22.664 167.954 21.632C167.066 20.576 165.866 20.048 164.354 20.048C162.842 20.048 161.642 20.576 160.754 21.632C159.89 22.664 159.458 24.008 159.458 25.664V25.772H169.322Z" fill="white"/>
<path d="M13.572 36.86C11.172 36.86 9.312 36.056 7.992 34.448V35.6C7.992 35.84 7.908 36.056 7.74 36.248C7.572 36.416 7.356 36.5 7.092 36.5H3.024C2.784 36.5 2.568 36.416 2.376 36.248C2.208 36.056 2.124 35.84 2.124 35.6V11.84C2.124 11.576 2.208 11.36 2.376 11.192C2.568 11.024 2.784 10.94 3.024 10.94H7.416C7.68 10.94 7.896 11.024 8.064 11.192C8.232 11.36 8.316 11.576 8.316 11.84V19.544C9.66 18.128 11.412 17.42 13.572 17.42C15.9 17.42 17.736 18.176 19.08 19.688C20.424 21.2 21.144 23.252 21.24 25.844C21.264 26.156 21.276 26.588 21.276 27.14C21.276 27.668 21.264 28.088 21.24 28.4C21.12 31.088 20.4 33.176 19.08 34.664C17.76 36.128 15.924 36.86 13.572 36.86ZM11.628 32.036C12.756 32.036 13.56 31.7 14.04 31.028C14.544 30.356 14.832 29.432 14.904 28.256C14.952 27.776 14.976 27.404 14.976 27.14C14.976 26.876 14.952 26.504 14.904 26.024C14.832 24.848 14.544 23.924 14.04 23.252C13.56 22.58 12.756 22.244 11.628 22.244C10.572 22.244 9.768 22.568 9.216 23.216C8.664 23.864 8.364 24.68 8.316 25.664L8.28 26.996L8.316 28.364C8.388 29.444 8.676 30.332 9.18 31.028C9.708 31.7 10.524 32.036 11.628 32.036ZM25.7349 36.5C25.4949 36.5 25.2789 36.416 25.0869 36.248C24.9189 36.056 24.8349 35.84 24.8349 35.6V11.84C24.8349 11.576 24.9189 11.36 25.0869 11.192C25.2789 11.024 25.4949 10.94 25.7349 10.94H29.9829C30.2469 10.94 30.4629 11.024 30.6309 11.192C30.7989 11.36 30.8829 11.576 30.8829 11.84V35.6C30.8829 35.864 30.7989 36.08 30.6309 36.248C30.4629 36.416 30.2469 36.5 29.9829 36.5H25.7349ZM42.0117 36.86C39.8997 36.86 38.1957 36.152 36.8997 34.736C35.6037 33.296 34.9557 31.292 34.9557 28.724V18.68C34.9557 18.416 35.0397 18.2 35.2077 18.032C35.3757 17.864 35.5917 17.78 35.8557 17.78H40.3557C40.6197 17.78 40.8357 17.864 41.0037 18.032C41.1957 18.2 41.2917 18.416 41.2917 18.68V28.508C41.2917 30.86 42.3357 32.036 44.4237 32.036C45.4317 32.036 46.2237 31.724 46.7997 31.1C47.3757 30.476 47.6637 29.612 47.6637 28.508V18.68C47.6637 18.416 47.7477 18.2 47.9157 18.032C48.1077 17.864 48.3237 17.78 48.5637 17.78H53.0637C53.3277 17.78 53.5437 17.864 53.7117 18.032C53.8797 18.2 53.9637 18.416 53.9637 18.68V35.6C53.9637 35.84 53.8797 36.056 53.7117 36.248C53.5437 36.416 53.3277 36.5 53.0637 36.5H48.8877C48.6477 36.5 48.4317 36.416 48.2397 36.248C48.0717 36.056 47.9877 35.84 47.9877 35.6V34.232C46.7397 35.984 44.7477 36.86 42.0117 36.86ZM66.8382 36.86C63.9582 36.86 61.6902 36.08 60.0342 34.52C58.3782 32.96 57.5142 30.692 57.4422 27.716V26.456C57.5382 23.624 58.4142 21.416 60.0702 19.832C61.7502 18.224 63.9942 17.42 66.8022 17.42C68.8422 17.42 70.5582 17.84 71.9502 18.68C73.3662 19.496 74.4222 20.624 75.1182 22.064C75.8382 23.504 76.1982 25.16 76.1982 27.032V27.896C76.1982 28.136 76.1142 28.352 75.9462 28.544C75.7782 28.712 75.5622 28.796 75.2982 28.796H63.7782V29.048C63.8262 30.176 64.1022 31.088 64.6062 31.784C65.1102 32.48 65.8422 32.828 66.8022 32.828C67.4022 32.828 67.8942 32.708 68.2782 32.468C68.6622 32.204 69.0102 31.892 69.3222 31.532C69.5382 31.268 69.7062 31.112 69.8262 31.064C69.9702 30.992 70.1862 30.956 70.4742 30.956H74.9382C75.1542 30.956 75.3342 31.028 75.4782 31.172C75.6462 31.292 75.7302 31.46 75.7302 31.676C75.7302 32.3 75.3702 33.02 74.6502 33.836C73.9542 34.652 72.9342 35.36 71.5902 35.96C70.2462 36.56 68.6622 36.86 66.8382 36.86ZM69.8622 25.232V25.16C69.8622 23.984 69.5862 23.06 69.0342 22.388C68.5062 21.692 67.7622 21.344 66.8022 21.344C65.8662 21.344 65.1222 21.692 64.5702 22.388C64.0422 23.06 63.7782 23.984 63.7782 25.16V25.232H69.8622Z" fill="white"/>
<ellipse cx="87" cy="48.5" rx="80" ry="3" fill="url(#paint0_linear)"/>
<defs>
<linearGradient id="paint0_linear" x1="21.5" y1="60" x2="179" y2="11.5" gradientUnits="userSpaceOnUse">
<stop stop-color="#2237F0"/>
<stop offset="1" stop-color="#2237F0" stop-opacity="0"/>
</linearGradient>
</defs>
</svg>
